<svg width="216" height="62" viewBox="0 0 216 62" fill="none" xmlns="http://www.w3.org/2000/svg">
<path d="M56 28C56 43.464 43.464 56 28 56C12.536 56 0 43.464 0 28C0 12.536 12.536 0 28 0C43.464 0 56 12.536 56 28Z" fill="#F95700"/>
<circle cx="28.5" cy="29.5" r="15.5" fill="white"/>
<path d="M25.661 43C19.7966 43 15 45.5878 15 53C15 53 21 56 28 56C35 56 41 53 41 53C41 45.5878 36.2034 43 30.339 43H25.661Z" fill="white"/>
<path d="M39.4964 31.6746C39.0776 31.8915 38.596 32 38.1353 32H18.8492C18.3676 32 17.9069 31.8915 17.4881 31.6746C16.462 31.154 15.8757 30.0694 16.0223 28.9848L16.0432 28.898C16.5039 25.2104 19.7497 22.3471 23.7283 22.1302C25.4036 22.0434 27.1835 22 29.0262 22C30.4711 22 31.8532 22.0434 33.2143 22.1302C37.2139 22.3471 40.4806 25.1887 40.9622 28.898C40.9622 28.9197 40.9832 28.9848 40.9832 28.9848C41.1088 30.0911 40.5225 31.154 39.4964 31.6746Z" fill="#333333"/>
<path d="M36.5 27.5C36.5 29.1569 35.1569 30.5 33.5 30.5C31.8431 30.5 30.5 29.1569 30.5 27.5C30.5 25.8431 31.8431 24.5 33.5 24.5C35.1569 24.5 36.5 25.8431 36.5 27.5Z" fill="#333333" stroke="white"/>
<path d="M35.18 27.1757C35.18 27.7086 34.7404 28.1654 34.1715 28.1654C33.6026 28.1654 33.163 27.734 33.163 27.1757C33.163 26.6428 33.6026 26.186 34.1715 26.186C34.7404 26.186 35.18 26.6428 35.18 27.1757Z" fill="white"/>
<path d="M26.5 27.5C26.5 29.1569 25.1569 30.5 23.5 30.5C21.8431 30.5 20.5 29.1569 20.5 27.5C20.5 25.8431 21.8431 24.5 23.5 24.5C25.1569 24.5 26.5 25.8431 26.5 27.5Z" fill="#333333" stroke="white"/>
<path d="M25.18 27.1757C25.18 27.7086 24.7404 28.1654 24.1715 28.1654C23.6026 28.1654 23.163 27.734 23.163 27.1757C23.163 26.6428 23.6026 26.186 24.1715 26.186C24.7404 26.186 25.18 26.6428 25.18 27.1757Z" fill="white"/>
<path d="M29 6H28V13H29V6Z" fill="white"/>
<path d="M32.0537 16H24.9463C24.4206 16 24 15.6209 24 15.1469V12.8531C24 12.3791 24.4206 12 24.9463 12H32.0537C32.5794 12 33 12.3791 33 12.8531V15.1469C33 15.6209 32.5794 16 32.0537 16Z" fill="white"/>
<path d="M30 5.5C30 6.33333 29.3333 7 28.5 7C27.6667 7 27 6.33333 27 5.5C27 4.66667 27.6667 4 28.5 4C29.3333 4 30 4.66667 30 5.5Z" fill="white"/>
<path d="M31.9314 38.3613C31.8856 38.5655 31.6111 38.7087 31.2451 38.7327L25.9837 38.997C25.5948 39.021 25.2288 38.9009 25.1144 38.7087C25.0686 38.6246 25.0229 38.5405 25 38.4444C25 38.4204 25 38.3964 25.0458 38.3724C25.0686 38.3483 25.1144 38.3363 25.1601 38.3363L31.7941 38C31.8399 38 31.8856 38 31.9314 38.024C31.9771 38.036 32 38.0601 32 38.0841C32 38.1802 31.9542 38.2772 31.9314 38.3613Z" fill="#333333"/>
<path d="M32 38C31.8361 39.5467 30.5017 40.8319 28.7692 40.9844C27.0602 41.1369 25.5151 39.9595 25 38.5C25.1405 38.805 25.6254 39.0436 26 39L31.2508 38.6753C31.6488 38.6317 31.9766 38.3703 32 38Z" fill="#F95700"/>
<path d="M51.2609 41L57 53L45 49.093L51.2609 41Z" fill="#F95700"/>
<path d="M71.791 46.4883V57H82.6367C83.5508 57 84.3301 56.707 84.9746 56.1211C85.6309 55.5352 85.9531 54.8262 85.9414 53.9941C85.959 53.4668 85.8213 52.9805 85.5283 52.5352C85.2471 52.0781 84.8691 51.7178 84.3945 51.4541C85.0098 50.874 85.3115 50.2002 85.2998 49.4326C85.2998 48.6182 84.9834 47.9238 84.3506 47.3496C83.7178 46.7754 82.9531 46.4883 82.0566 46.4883H71.791ZM74.8936 48.9404H81.1602C81.4238 48.9229 81.6436 49.0049 81.8193 49.1865C82.0127 49.3447 82.1064 49.5498 82.1006 49.8018C82.1123 50.042 82.0215 50.2441 81.8281 50.4082C81.6523 50.5723 81.4297 50.6543 81.1602 50.6543H74.8936V48.9404ZM74.8936 52.8428H81.8545C82.124 52.8252 82.3467 52.9072 82.5225 53.0889C82.7158 53.2588 82.8066 53.4609 82.7949 53.6953C82.8066 53.918 82.7158 54.1172 82.5225 54.293C82.3467 54.4453 82.124 54.5303 81.8545 54.5479H74.8936V52.8428ZM90.9951 46.4883C90.0635 46.4883 89.2549 46.793 88.5693 47.4023C87.9131 48.0117 87.5762 48.75 87.5586 49.6172V53.8799C87.5586 54.7412 87.8926 55.4766 88.5605 56.0859C89.2461 56.6953 90.0576 57 90.9951 57H99.002C99.9688 57 100.78 56.6982 101.437 56.0947C102.122 55.4795 102.459 54.7412 102.447 53.8799V49.6172C102.465 48.75 102.131 48.0117 101.445 47.4023C100.777 46.793 99.9629 46.4883 99.002 46.4883H90.9951ZM91.8213 49.0459H98.1846C98.5068 49.04 98.7793 49.1426 99.002 49.3535C99.2305 49.5527 99.3447 49.8018 99.3447 50.1006V53.3877C99.3506 53.6748 99.2393 53.9238 99.0107 54.1348C98.7939 54.3223 98.5186 54.4248 98.1846 54.4424H91.8213C91.5049 54.4248 91.2324 54.3223 91.0039 54.1348C90.7754 53.9238 90.6611 53.6748 90.6611 53.3877V50.1006C90.6611 49.8018 90.7725 49.5527 90.9951 49.3535C91.2295 49.1426 91.5049 49.04 91.8213 49.0459ZM104.064 46.4883V49.0459H109.373V57H112.467V49.0459H117.775V46.4883H104.064Z" fill="#C5C5C5"/>
<path d="M67.96 31.44V30.64C67.96 30.08 68.24 29.8 68.8 29.8H72.2C72.76 29.8 73.04 30.08 73.04 30.64V30.96C73.04 31.9733 73.24 32.6667 73.64 33.04C74.04 33.4133 74.7733 33.6 75.84 33.6H77.72C78.76 33.6 79.48 33.4 79.88 33C80.3067 32.6 80.52 31.8533 80.52 30.76V30.28C80.52 29.5067 80.2 28.92 79.56 28.52C78.9467 28.0933 78.1733 27.84 77.24 27.76C76.3067 27.68 75.2933 27.5333 74.2 27.32C73.1333 27.08 72.1333 26.7867 71.2 26.44C70.2667 26.0667 69.48 25.36 68.84 24.32C68.2267 23.2533 67.92 21.8933 67.92 20.24V18.84C67.92 16.76 68.5067 15.1467 69.68 14C70.8533 12.8533 72.48 12.28 74.56 12.28H78.56C80.6667 12.28 82.3067 12.8533 83.48 14C84.6533 15.1467 85.24 16.76 85.24 18.84V19.6C85.24 20.16 84.96 20.44 84.4 20.44H81C80.44 20.44 80.16 20.16 80.16 19.6V19.36C80.16 18.32 79.96 17.6133 79.56 17.24C79.16 16.8667 78.4267 16.68 77.36 16.68H75.8C74.7067 16.68 73.96 16.8933 73.56 17.32C73.1867 17.72 73 18.52 73 19.72V20.48C73 21.7333 74.0933 22.4533 76.28 22.64C78.5467 22.8267 80.56 23.28 82.32 24C83.2533 24.4 84.0267 25.12 84.64 26.16C85.28 27.1733 85.6 28.48 85.6 30.08V31.44C85.6 33.52 85.0133 35.1333 83.84 36.28C82.6667 37.4267 81.04 38 78.96 38H74.6C72.52 38 70.8933 37.4267 69.72 36.28C68.5467 35.1333 67.96 33.52 67.96 31.44ZM94.4025 38H91.0025C90.4425 38 90.1625 37.72 90.1625 37.16V13.12C90.1625 12.56 90.4425 12.28 91.0025 12.28H94.4025C94.9625 12.28 95.2425 12.56 95.2425 13.12V22.52C95.2425 22.8133 95.4025 22.96 95.7225 22.96H102.483C102.776 22.96 102.923 22.8133 102.923 22.52V13.12C102.923 12.56 103.203 12.28 103.763 12.28H107.163C107.723 12.28 108.003 12.56 108.003 13.12V37.16C108.003 37.72 107.723 38 107.163 38H103.763C103.203 38 102.923 37.72 102.923 37.16V27.8C102.923 27.5067 102.776 27.36 102.483 27.36H95.7225C95.4025 27.36 95.2425 27.5067 95.2425 27.8V37.16C95.2425 37.72 94.9625 38 94.4025 38ZM120.209 33.6H123.049C123.903 33.6 124.503 33.4267 124.849 33.08C125.223 32.7067 125.409 32.0933 125.409 31.24V19.04C125.409 18.1867 125.223 17.5867 124.849 17.24C124.503 16.8667 123.903 16.68 123.049 16.68H120.209C119.356 16.68 118.756 16.8667 118.409 17.24C118.063 17.5867 117.889 18.1867 117.889 19.04V31.24C117.889 32.0933 118.063 32.7067 118.409 33.08C118.756 33.4267 119.356 33.6 120.209 33.6ZM123.889 38H119.409C117.303 38 115.676 37.44 114.529 36.32C113.383 35.2 112.809 33.5867 112.809 31.48V18.8C112.809 16.6933 113.383 15.08 114.529 13.96C115.676 12.84 117.303 12.28 119.409 12.28H123.889C125.996 12.28 127.623 12.84 128.769 13.96C129.916 15.08 130.489 16.6933 130.489 18.8V31.48C130.489 33.5867 129.916 35.2 128.769 36.32C127.623 37.44 125.996 38 123.889 38ZM139.52 38H136.12C135.56 38 135.28 37.72 135.28 37.16V13.12C135.28 12.56 135.56 12.28 136.12 12.28H145.88C147.96 12.28 149.573 12.8533 150.72 14C151.866 15.12 152.44 16.72 152.44 18.8V22.64C152.44 24.72 151.866 26.3333 150.72 27.48C149.573 28.6 147.96 29.16 145.88 29.16H140.84C140.52 29.16 140.36 29.3067 140.36 29.6V37.16C140.36 37.72 140.08 38 139.52 38ZM140.8 24.72H145.04C145.893 24.72 146.493 24.5467 146.84 24.2C147.186 23.8267 147.36 23.2267 147.36 22.4V19.04C147.36 18.1867 147.186 17.5867 146.84 17.24C146.493 16.8667 145.893 16.68 145.04 16.68H140.8C140.506 16.68 140.36 16.8267 140.36 17.12V24.28C140.36 24.5733 140.506 24.72 140.8 24.72ZM161.771 13.12V37.16C161.771 37.72 161.491 38 160.931 38H157.531C156.971 38 156.691 37.72 156.691 37.16V13.12C156.691 12.56 156.971 12.28 157.531 12.28H160.931C161.491 12.28 161.771 12.56 161.771 13.12ZM180.315 12.28H183.675C184.261 12.28 184.555 12.5467 184.555 13.08V31.48C184.555 33.56 183.968 35.1733 182.795 36.32C181.648 37.44 180.035 38 177.955 38H173.555C171.448 38 169.821 37.44 168.675 36.32C167.528 35.2 166.955 33.5867 166.955 31.48V13.12C166.955 12.56 167.235 12.28 167.795 12.28H171.195C171.755 12.28 172.035 12.56 172.035 13.12V31.24C172.035 32.0933 172.208 32.7067 172.555 33.08C172.928 33.4267 173.528 33.6 174.355 33.6H177.115C177.968 33.6 178.568 33.4267 178.915 33.08C179.288 32.7067 179.475 32.0933 179.475 31.24V13.12C179.475 12.56 179.755 12.28 180.315 12.28ZM206.618 12.28H212.538C213.098 12.28 213.378 12.56 213.378 13.12V37.16C213.378 37.72 213.098 38 212.538 38H209.258C208.698 38 208.418 37.72 208.418 37.16V18.2H208.258L204.178 31.6C204.018 32.1333 203.684 32.4 203.178 32.4H199.818C199.311 32.4 198.978 32.1333 198.818 31.6L194.658 18.16H194.498V37.16C194.498 37.48 194.444 37.7067 194.338 37.84C194.231 37.9467 194.004 38 193.658 38H190.378C189.818 38 189.538 37.72 189.538 37.16V13.12C189.538 12.56 189.818 12.28 190.378 12.28H196.338C196.711 12.28 196.964 12.4667 197.098 12.84L201.338 26.96H201.578L205.858 12.84C205.938 12.4667 206.191 12.28 206.618 12.28Z" fill="white"/>
</svg>
