<svg width="288" height="77" viewBox="0 0 288 77" fill="none" xmlns="http://www.w3.org/2000/svg">
<path d="M77 73.5L71.5 58.4375C75.075 52.6625 77 45.7875 77 38.5C77 17.1875 59.8125 0 38.5 0C17.1875 0 0 17.1875 0 38.5C0 59.8125 17.1875 77 38.5 77C47.9875 77 56.5125 73.5625 63.25 67.925L77 73.5Z" fill="#F95700"/>
<path d="M45.375 20.075V17.6C45.375 16.9125 44.825 16.3625 44.1375 16.3625H39.875V9.35005C40.7 9.07505 41.25 8.25005 41.25 7.42505C41.25 6.32505 40.2875 5.36255 39.1875 5.36255C38.0875 5.36255 37.125 6.32505 37.125 7.42505C37.125 8.38755 37.675 9.07505 38.5 9.35005V16.3625H34.2375C33.55 16.3625 33 16.9125 33 17.6V20.075C24.2 22.6875 17.875 30.8 17.875 40.425C17.875 52.25 27.3625 61.7375 39.1875 61.7375C51.0125 61.7375 60.5 52.25 60.5 40.425C60.5 30.8 54.175 22.6875 45.375 20.075Z" fill="white"/>
<path d="M56.375 72.6C50.875 75.4875 44.9625 77 38.5 77C32.0375 77 25.85 75.4875 20.625 72.6C22.4125 64.7625 28.1875 59.125 35.2 59.125H41.8C48.8125 59.125 54.5875 64.7625 56.375 72.6Z" fill="white"/>
<path d="M54.3125 43.5875C53.7625 43.8625 53.075 44 52.3875 44H25.85C25.1625 44 24.6125 43.8625 23.925 43.5875C22.55 42.9 21.725 41.3875 21.8625 39.875V39.7375C22.55 34.65 26.95 30.6625 32.45 30.3875C34.925 30.25 37.4 30.25 39.875 30.25C41.8 30.25 43.725 30.25 45.65 30.3875C51.15 30.6625 55.6875 34.65 56.2375 39.7375V39.875C56.5125 41.3875 55.6875 42.9 54.3125 43.5875Z" fill="#333333"/>
<path d="M50.1874 37.8125C50.1874 40.15 48.3999 41.9375 46.0624 41.9375C43.7249 41.9375 41.9374 40.15 41.9374 37.8125C41.9374 35.475 43.7249 33.6875 46.0624 33.6875C48.3999 33.6875 50.1874 35.475 50.1874 37.8125Z" fill="#333333"/>
<path d="M46.0624 42.625C43.4499 42.625 41.2499 40.425 41.2499 37.8125C41.2499 35.2 43.4499 33 46.0624 33C48.6749 33 50.8749 35.2 50.8749 37.8125C50.8749 40.425 48.6749 42.625 46.0624 42.625ZM46.0624 34.375C44.1374 34.375 42.6249 35.8875 42.6249 37.8125C42.6249 39.7375 44.1374 41.25 46.0624 41.25C47.9874 41.25 49.4999 39.7375 49.4999 37.8125C49.4999 35.8875 47.9874 34.375 46.0624 34.375Z" fill="white"/>
<path d="M48.3999 37.3999C48.3999 38.0874 47.8499 38.7749 47.0249 38.7749C46.1999 38.7749 45.6499 38.2249 45.6499 37.3999C45.6499 36.7124 46.1999 36.0249 47.0249 36.0249C47.7124 36.0249 48.3999 36.5749 48.3999 37.3999Z" fill="white"/>
<path d="M36.4376 37.8125C36.4376 40.15 34.6501 41.9375 32.3126 41.9375C29.9751 41.9375 28.1876 40.15 28.1876 37.8125C28.1876 35.475 29.9751 33.6875 32.3126 33.6875C34.6501 33.6875 36.4376 35.475 36.4376 37.8125Z" fill="#333333"/>
<path d="M32.3124 42.625C29.6999 42.625 27.4999 40.425 27.4999 37.8125C27.4999 35.2 29.6999 33 32.3124 33C34.9249 33 37.1249 35.2 37.1249 37.8125C37.1249 40.425 34.9249 42.625 32.3124 42.625ZM32.3124 34.375C30.3874 34.375 28.8749 35.8875 28.8749 37.8125C28.8749 39.7375 30.3874 41.25 32.3124 41.25C34.2374 41.25 35.7499 39.7375 35.7499 37.8125C35.7499 35.8875 34.2374 34.375 32.3124 34.375Z" fill="white"/>
<path d="M34.6498 37.3999C34.6498 38.0874 34.0998 38.7749 33.2748 38.7749C32.4498 38.7749 31.8998 38.2249 31.8998 37.3999C31.8998 36.7124 32.4498 36.0249 33.2748 36.0249C33.9623 36.0249 34.6498 36.5749 34.6498 37.3999Z" fill="white"/>
<path d="M34.7874 52.3875L44.1374 51.7C44.8249 51.5625 45.3749 51.0125 45.3749 50.4625C45.3749 50.4625 45.3749 50.325 45.2374 50.325C45.0999 50.325 45.0999 50.325 44.9624 50.325L33.2749 50.875C33.1374 50.875 33.1374 50.875 33.1374 50.875C32.9999 50.875 32.9999 51.0125 32.9999 51.0125L33.1374 51.2875C33.4124 51.8375 34.2374 52.3875 34.7874 52.3875Z" fill="#333333"/>
<path d="M45.3727 50.4636C45.2362 51.1483 44.6904 51.4221 44.0081 51.4221L34.8649 51.9698C34.1826 52.1068 33.3638 51.696 33.0909 51.1483C34.0461 53.7499 36.7754 55.8038 39.7776 55.53C42.7799 55.2561 44.9633 53.3391 45.3727 50.7375C45.3727 50.7375 45.3727 50.6006 45.3727 50.4636Z" fill="#F95700"/>
<path d="M89 59V70H100.557C101.531 70 102.361 69.6934 103.048 69.0803C103.747 68.4671 104.091 67.7252 104.078 66.8545C104.097 66.3027 103.95 65.7938 103.638 65.3278C103.338 64.8495 102.936 64.4724 102.43 64.1965C103.086 63.5895 103.407 62.8843 103.395 62.0811C103.395 61.2288 103.058 60.5022 102.383 59.9013C101.709 59.3004 100.894 59 99.9388 59H89ZM92.306 61.5661H98.9836C99.2645 61.5477 99.4987 61.6335 99.686 61.8236C99.892 61.9891 99.9919 62.2037 99.9857 62.4674C99.9982 62.7188 99.9014 62.9303 99.6953 63.102C99.508 63.2737 99.2708 63.3595 98.9836 63.3595H92.306V61.5661ZM92.306 65.6497H99.7234C100.011 65.6313 100.248 65.7171 100.435 65.9072C100.641 66.085 100.738 66.2965 100.726 66.5418C100.738 66.7748 100.641 66.9833 100.435 67.1672C100.248 67.3266 100.011 67.4156 99.7234 67.4339H92.306V65.6497Z" fill="#C5C5C5"/>
<path d="M109.463 59C108.471 59 107.609 59.3188 106.879 59.9565C106.179 60.5942 105.82 61.3668 105.802 62.2742V66.7349C105.802 67.6363 106.157 68.4058 106.869 69.0435C107.6 69.6812 108.465 70 109.463 70H117.995C119.026 70 119.89 69.6842 120.59 69.0527C121.32 68.4089 121.679 67.6363 121.667 66.7349V62.2742C121.685 61.3668 121.33 60.5942 120.599 59.9565C119.887 59.3188 119.019 59 117.995 59H109.463ZM110.344 61.6764H117.124C117.468 61.6703 117.758 61.7776 117.995 61.9983C118.239 62.2068 118.361 62.4674 118.361 62.7801V66.2199C118.367 66.5203 118.248 66.7809 118.005 67.0017C117.774 67.1979 117.48 67.3052 117.124 67.3236H110.344C110.007 67.3052 109.716 67.1979 109.473 67.0017C109.229 66.7809 109.108 66.5203 109.108 66.2199V62.7801C109.108 62.4674 109.226 62.2068 109.463 61.9983C109.713 61.7776 110.007 61.6703 110.344 61.6764Z" fill="#C5C5C5"/>
<path d="M123.39 59V61.6764H129.047V70H132.343V61.6764H138V59H123.39Z" fill="#C5C5C5"/>
<path d="M88.055 42.0731V40.9844C88.055 40.2224 88.44 39.8414 89.21 39.8414H93.8849C94.6549 39.8414 95.0399 40.2224 95.0399 40.9844V41.4199C95.0399 42.7989 95.3149 43.7424 95.8648 44.2504C96.4148 44.7584 97.4231 45.0124 98.8898 45.0124H101.475C102.905 45.0124 103.895 44.7403 104.445 44.196C105.031 43.6516 105.325 42.6356 105.325 41.1477V40.4946C105.325 39.4422 104.885 38.6439 104.005 38.0995C103.161 37.5189 102.098 37.1742 100.815 37.0653C99.5314 36.9565 98.1381 36.7569 96.6348 36.4666C95.1682 36.14 93.7932 35.7408 92.5099 35.269C91.2266 34.761 90.145 33.7994 89.265 32.3841C88.4217 30.9326 88 29.0819 88 26.832V24.9269C88 22.0964 88.8067 19.901 90.42 18.3406C92.0333 16.7802 94.2699 16 97.1298 16H102.63C105.526 16 107.781 16.7802 109.395 18.3406C111.008 19.901 111.815 22.0964 111.815 24.9269V25.9611C111.815 26.7232 111.43 27.1042 110.66 27.1042H105.985C105.215 27.1042 104.83 26.7232 104.83 25.9611V25.6345C104.83 24.2193 104.555 23.2576 104.005 22.7496C103.455 22.2416 102.446 21.9876 100.98 21.9876H98.8348C97.3315 21.9876 96.3048 22.2779 95.7548 22.8585C95.2415 23.4028 94.9849 24.4914 94.9849 26.1244V27.1586C94.9849 28.8642 96.4882 29.844 99.4948 30.098C102.611 30.352 105.38 30.9689 107.8 31.9487C109.083 32.493 110.146 33.4728 110.99 34.888C111.87 36.267 112.31 38.0451 112.31 40.2224V42.0731C112.31 44.9036 111.503 47.099 109.89 48.6594C108.276 50.2198 106.04 51 103.18 51H97.1848C94.3249 51 92.0883 50.2198 90.4749 48.6594C88.8616 47.099 88.055 44.9036 88.055 42.0731Z" fill="#333333"/>
<path d="M124.413 51H119.738C118.968 51 118.583 50.619 118.583 49.8569V17.1431C118.583 16.381 118.968 16 119.738 16H124.413C125.183 16 125.568 16.381 125.568 17.1431V29.9347C125.568 30.3339 125.788 30.5334 126.228 30.5334H135.522C135.926 30.5334 136.127 30.3339 136.127 29.9347V17.1431C136.127 16.381 136.512 16 137.282 16H141.957C142.727 16 143.112 16.381 143.112 17.1431V49.8569C143.112 50.619 142.727 51 141.957 51H137.282C136.512 51 136.127 50.619 136.127 49.8569V37.1197C136.127 36.7206 135.926 36.521 135.522 36.521H126.228C125.788 36.521 125.568 36.7206 125.568 37.1197V49.8569C125.568 50.619 125.183 51 124.413 51Z" fill="#333333"/>
<path d="M159.896 45.0124H163.801C164.975 45.0124 165.8 44.7766 166.276 44.3048C166.79 43.7968 167.046 42.9622 167.046 41.8009V25.1991C167.046 24.0378 166.79 23.2214 166.276 22.7496C165.8 22.2416 164.975 21.9876 163.801 21.9876H159.896C158.723 21.9876 157.898 22.2416 157.421 22.7496C156.945 23.2214 156.706 24.0378 156.706 25.1991V41.8009C156.706 42.9622 156.945 43.7968 157.421 44.3048C157.898 44.7766 158.723 45.0124 159.896 45.0124ZM164.956 51H158.796C155.9 51 153.663 50.2379 152.087 48.7138C150.51 47.1897 149.722 44.9943 149.722 42.1275V24.8725C149.722 22.0057 150.51 19.8103 152.087 18.2862C153.663 16.7621 155.9 16 158.796 16H164.956C167.853 16 170.09 16.7621 171.666 18.2862C173.243 19.8103 174.031 22.0057 174.031 24.8725V42.1275C174.031 44.9943 173.243 47.1897 171.666 48.7138C170.09 50.2379 167.853 51 164.956 51Z" fill="#333333"/>
<path d="M186.448 51H181.773C181.003 51 180.618 50.619 180.618 49.8569V17.1431C180.618 16.381 181.003 16 181.773 16H195.192C198.052 16 200.271 16.7802 201.847 18.3406C203.424 19.8647 204.212 22.042 204.212 24.8725V30.098C204.212 32.9285 203.424 35.1239 201.847 36.6843C200.271 38.2084 198.052 38.9704 195.192 38.9704H188.263C187.823 38.9704 187.603 39.17 187.603 39.5692V49.8569C187.603 50.619 187.218 51 186.448 51ZM188.208 32.9285H194.037C195.211 32.9285 196.036 32.6926 196.512 32.2208C196.989 31.7128 197.227 30.8963 197.227 29.7714V25.1991C197.227 24.0378 196.989 23.2214 196.512 22.7496C196.036 22.2416 195.211 21.9876 194.037 21.9876H188.208C187.804 21.9876 187.603 22.1871 187.603 22.5863V32.3297C187.603 32.7289 187.804 32.9285 188.208 32.9285Z" fill="#333333"/>
<path d="M217.042 17.1431V49.8569C217.042 50.619 216.657 51 215.887 51H211.212C210.442 51 210.057 50.619 210.057 49.8569V17.1431C210.057 16.381 210.442 16 211.212 16H215.887C216.657 16 217.042 16.381 217.042 17.1431Z" fill="#333333"/>
<path d="M242.54 16H247.159C247.966 16 248.369 16.3629 248.369 17.0886V42.1275C248.369 44.958 247.563 47.1534 245.949 48.7138C244.373 50.2379 242.155 51 239.295 51H233.245C230.348 51 228.112 50.2379 226.535 48.7138C224.958 47.1897 224.17 44.9943 224.17 42.1275V17.1431C224.17 16.381 224.555 16 225.325 16H230C230.77 16 231.155 16.381 231.155 17.1431V41.8009C231.155 42.9622 231.393 43.7968 231.87 44.3048C232.383 44.7766 233.208 45.0124 234.345 45.0124H238.14C239.313 45.0124 240.138 44.7766 240.615 44.3048C241.128 43.7968 241.385 42.9622 241.385 41.8009V17.1431C241.385 16.381 241.77 16 242.54 16Z" fill="#333333"/>
<path d="M278.705 16H286.845C287.615 16 288 16.381 288 17.1431V49.8569C288 50.619 287.615 51 286.845 51H282.335C281.565 51 281.18 50.619 281.18 49.8569V24.056H280.96L275.35 42.2908C275.13 43.0166 274.672 43.3795 273.975 43.3795H269.355C268.659 43.3795 268.2 43.0166 267.98 42.2908L262.261 24.0016H262.041V49.8569C262.041 50.2924 261.967 50.6008 261.821 50.7823C261.674 50.9274 261.362 51 260.886 51H256.376C255.606 51 255.221 50.619 255.221 49.8569V17.1431C255.221 16.381 255.606 16 256.376 16H264.57C265.084 16 265.432 16.254 265.615 16.7621L271.445 35.9767H271.775L277.66 16.7621C277.77 16.254 278.119 16 278.705 16Z" fill="#333333"/>
</svg>
