<svg width="4515" height="1218" viewBox="0 0 4515 1218" fill="none" xmlns="http://www.w3.org/2000/svg">
<path d="M1396.46 944.107V1116.96H1575.8C1590.93 1116.96 1603.89 1112.64 1614.7 1101.84C1625.5 1093.2 1629.82 1080.23 1629.82 1067.27C1629.82 1058.63 1627.66 1049.98 1623.34 1043.5C1619.02 1037.02 1612.54 1030.54 1603.89 1026.21C1614.7 1017.57 1619.02 1004.61 1619.02 993.804C1619.02 980.84 1614.7 970.036 1603.89 959.232C1593.09 950.59 1580.13 944.107 1567.16 944.107H1396.46V944.107ZM1448.32 985.161H1552.04C1556.36 985.161 1560.68 985.161 1562.84 989.482C1565 991.643 1567.16 995.965 1567.16 1000.29C1567.16 1004.61 1565 1006.77 1562.84 1011.09C1560.68 1013.25 1556.36 1015.41 1552.04 1015.41H1448.32V985.161ZM1448.32 1047.82H1562.84C1567.16 1047.82 1571.48 1047.82 1573.64 1052.14C1575.8 1054.3 1577.96 1058.63 1577.96 1062.95C1577.96 1067.27 1575.8 1069.43 1573.64 1073.75C1571.48 1075.91 1567.16 1078.07 1562.84 1078.07H1448.32V1047.82Z" fill="#C5C5C5"/>
<path d="M1711.93 944.107C1696.8 944.107 1683.84 948.429 1673.04 959.232C1662.23 970.036 1655.75 980.84 1655.75 995.965V1065.11C1655.75 1080.23 1662.23 1091.04 1673.04 1101.84C1683.84 1112.64 1696.8 1116.96 1714.09 1116.96H1845.89C1861.02 1116.96 1876.14 1112.64 1886.95 1101.84C1897.75 1091.04 1904.23 1080.23 1904.23 1065.11V995.965C1904.23 980.84 1899.91 970.036 1886.95 959.232C1876.14 948.429 1863.18 944.107 1845.89 944.107H1711.93ZM1724.89 985.161H1828.61C1832.93 985.161 1839.41 987.322 1841.57 989.482C1845.89 993.804 1848.05 995.965 1848.05 1002.45V1056.46C1848.05 1060.79 1845.89 1065.11 1841.57 1069.43C1837.25 1071.59 1832.93 1073.75 1828.61 1073.75H1724.89C1720.57 1073.75 1716.25 1071.59 1711.93 1069.43C1707.61 1065.11 1705.45 1060.79 1705.45 1056.46V1002.45C1705.45 998.125 1707.61 993.804 1711.93 989.482C1716.25 987.322 1720.57 985.161 1724.89 985.161Z" fill="#C5C5C5"/>
<path d="M1928 944.107V985.161H2014.43V1116.96H2066.29V985.161H2152.71V944.107H1928Z" fill="#C5C5C5"/>
<path d="M1374.86 671.858V654.572C1374.86 641.608 1381.34 637.287 1392.14 637.287H1465.61C1478.57 637.287 1482.89 643.769 1482.89 654.572V663.215C1482.89 684.822 1487.21 699.947 1495.86 708.59C1504.5 717.233 1519.63 721.554 1543.39 721.554H1584.45C1606.05 721.554 1623.34 717.233 1631.98 708.59C1640.63 699.947 1644.95 684.822 1644.95 661.054V650.251C1644.95 632.965 1638.46 620.001 1623.34 611.358C1610.38 602.715 1593.09 596.233 1573.64 594.072C1554.2 591.912 1532.59 589.751 1508.82 585.429C1485.05 581.108 1463.45 574.626 1444 565.983C1424.55 557.34 1407.27 542.215 1392.14 520.608C1379.18 496.84 1372.7 468.751 1372.7 432.019V401.769C1372.7 356.394 1385.66 321.822 1411.59 298.054C1437.52 274.287 1472.09 261.322 1517.46 261.322H1603.89C1649.27 261.322 1683.84 274.287 1709.77 298.054C1735.7 321.822 1748.66 358.554 1748.66 401.769V419.054C1748.66 432.019 1742.18 436.34 1731.38 436.34H1655.75C1642.79 436.34 1638.46 429.858 1638.46 419.054V414.733C1638.46 393.126 1634.14 378.001 1625.5 369.358C1616.86 360.715 1601.73 356.394 1577.96 356.394H1543.39C1519.63 356.394 1504.5 360.715 1495.86 369.358C1487.21 378.001 1482.89 395.287 1482.89 421.215V438.501C1482.89 466.59 1506.66 481.715 1554.2 486.037C1603.89 490.358 1647.11 499.001 1683.84 516.287C1703.29 524.929 1720.57 540.054 1733.54 563.822C1746.5 585.429 1755.14 613.519 1755.14 648.09V678.34C1755.14 723.715 1742.18 758.287 1716.25 782.054C1692.48 801.501 1655.75 814.465 1612.54 814.465H1517.46C1472.09 814.465 1437.52 801.501 1411.59 777.733C1385.66 751.804 1374.86 717.233 1374.86 671.858Z" fill="white"/>
<path d="M1945.28 814.465H1871.82C1858.86 814.465 1854.53 807.983 1854.53 797.179V278.608C1854.53 265.644 1861.02 261.322 1871.82 261.322H1945.28C1958.25 261.322 1962.57 267.804 1962.57 278.608V481.715C1962.57 488.197 1966.89 490.358 1973.37 490.358H2120.3C2126.78 490.358 2128.95 488.197 2128.95 481.715V278.608C2128.95 265.644 2135.43 261.322 2146.23 261.322H2219.7C2232.66 261.322 2236.98 267.804 2236.98 278.608V797.179C2236.98 810.144 2230.5 814.465 2219.7 814.465H2146.23C2133.27 814.465 2128.95 807.983 2128.95 797.179V594.072C2128.95 587.59 2126.78 585.429 2120.3 585.429H1973.37C1966.89 585.429 1962.57 587.59 1962.57 594.072V797.179C1962.57 807.983 1958.25 814.465 1945.28 814.465Z" fill="white"/>
<path d="M2502.75 719.394H2563.25C2582.7 719.394 2595.66 715.072 2602.14 708.59C2610.79 699.947 2615.11 686.983 2615.11 669.697V403.929C2615.11 384.483 2610.79 371.519 2602.14 365.037C2595.66 356.394 2582.7 352.072 2563.25 352.072H2502.75C2483.3 352.072 2470.34 356.394 2463.86 365.037C2457.38 371.519 2453.05 384.483 2453.05 403.929V667.537C2453.05 686.983 2457.38 699.947 2463.86 706.43C2472.5 715.072 2485.47 719.394 2502.75 719.394ZM2582.7 814.465H2485.47C2440.09 814.465 2405.52 801.501 2379.59 777.733C2355.82 753.965 2342.86 719.394 2342.86 674.019V399.608C2342.86 354.233 2355.82 319.662 2379.59 295.894C2403.36 272.126 2440.09 259.162 2485.47 259.162H2582.7C2628.07 259.162 2662.64 272.126 2688.57 295.894C2712.34 319.662 2725.3 354.233 2725.3 399.608V674.019C2725.3 719.394 2712.34 753.965 2688.57 777.733C2662.64 801.501 2628.07 814.465 2582.7 814.465Z" fill="white"/>
<path d="M2919.77 814.465H2846.3C2833.34 814.465 2829.02 807.983 2829.02 797.179V278.608C2829.02 265.644 2835.5 261.322 2846.3 261.322H3058.05C3103.43 261.322 3138 274.287 3161.77 298.054C3185.54 321.822 3198.5 356.394 3198.5 401.769V483.876C3198.5 529.251 3185.54 563.822 3161.77 587.59C3138 611.358 3101.27 624.322 3058.05 624.322H2950.02C2943.54 624.322 2939.22 626.483 2939.22 632.965V797.179C2939.22 807.983 2932.73 814.465 2919.77 814.465ZM2947.86 527.09H3038.61C3058.05 527.09 3071.02 522.769 3077.5 516.287C3083.98 507.644 3088.3 494.679 3088.3 477.394V403.929C3088.3 384.483 3083.98 371.519 3077.5 365.037C3071.02 356.394 3058.05 352.072 3038.61 352.072H2947.86C2941.38 352.072 2939.22 354.233 2939.22 360.715V516.287C2939.22 524.929 2941.38 527.09 2947.86 527.09Z" fill="white"/>
<path d="M3401.61 276.447V795.019C3401.61 807.983 3395.13 812.304 3384.32 812.304H3310.86C3297.89 812.304 3293.57 805.822 3293.57 795.019V276.447C3293.57 263.483 3300.05 259.162 3310.86 259.162H3384.32C3395.13 259.162 3401.61 265.644 3401.61 276.447Z" fill="white"/>
<path d="M3801.34 259.162H3874.8C3887.77 259.162 3894.25 265.644 3894.25 276.447V674.019C3894.25 719.394 3881.29 753.965 3855.36 777.733C3831.59 801.501 3794.86 814.465 3751.64 814.465H3656.57C3611.2 814.465 3576.63 801.501 3550.7 777.733C3526.93 753.965 3513.96 719.394 3513.96 674.019V276.447C3513.96 263.483 3520.45 259.162 3531.25 259.162H3604.71C3617.68 259.162 3622 265.644 3622 276.447V667.537C3622 686.983 3626.32 699.947 3632.8 706.43C3641.45 712.912 3654.41 717.233 3671.7 717.233H3732.2C3751.64 717.233 3764.61 712.912 3771.09 706.43C3779.73 697.787 3784.05 684.822 3784.05 667.537V276.447C3784.05 265.644 3790.54 259.162 3801.34 259.162Z" fill="white"/>
<path d="M4369.61 259.162H4497.09C4510.05 259.162 4514.38 265.644 4514.38 276.447V795.019C4514.38 807.983 4507.89 812.305 4497.09 812.305H4425.79C4412.82 812.305 4408.5 805.822 4408.5 795.019V384.483H4404.18L4315.59 674.019C4311.27 684.822 4304.79 691.304 4293.98 691.304H4220.52C4209.72 691.304 4203.23 684.822 4198.91 674.019L4108.16 384.483H4103.84V795.019C4103.84 801.501 4101.68 805.822 4099.52 810.144C4097.36 812.304 4093.04 814.465 4084.39 814.465H4013.09C4000.13 814.465 3995.8 807.983 3995.8 797.18V278.608C3995.8 265.644 4002.29 261.322 4013.09 261.322H4142.73C4151.38 261.322 4155.7 265.644 4160.02 274.287L4250.77 578.947H4255.09L4348 274.287C4354.48 263.483 4360.97 259.162 4369.61 259.162Z" fill="white"/>
<path d="M1218 609C1218 271.909 946.091 0 609 0C271.909 0 0 271.909 0 609C0 843.917 132.029 1047.19 326.148 1148.77C348.034 1053.02 407.507 977.968 484.583 948.589C365.4 896.729 282.733 778.259 282.733 639.45C282.733 487.2 382.766 358.858 521.932 317.584V278.451C521.932 267.627 530.615 258.825 541.558 258.825H609V147.849C595.916 143.448 587.233 132.624 587.233 117.399C587.233 100.033 602.458 84.808 619.824 84.808C637.19 84.808 652.415 100.033 652.415 117.399C652.415 130.483 643.732 143.448 630.648 147.849V258.825H698.209C709.033 258.825 717.835 267.508 717.835 278.451V317.584C857.001 358.858 957.034 487.2 957.034 639.45C957.034 782.422 869.371 903.746 744.479 952.99C816.084 984.986 870.799 1056.71 891.614 1147.82C930.39 1127.24 966.906 1102.62 1000.45 1074.43L1218 1162.57L1131.05 924.324C1187.55 832.974 1218 724.258 1218 609Z" fill="#F95700"/>
<path d="M744.479 952.989C869.371 903.746 957.034 782.422 957.034 639.45C957.034 487.2 857.001 358.858 717.835 317.584V278.451C717.835 267.627 709.152 258.825 698.209 258.825H630.767V147.849C643.851 143.448 652.534 130.483 652.534 117.399C652.534 100.033 637.309 84.8076 619.943 84.8076C602.577 84.8076 587.352 100.033 587.352 117.399C587.352 132.624 596.035 143.448 609.119 147.849V258.825H541.677C530.853 258.825 522.051 267.508 522.051 278.451V317.584C382.885 358.858 282.852 487.2 282.852 639.45C282.852 778.259 365.519 896.728 484.702 948.588C407.626 977.968 348.034 1053.02 326.148 1148.77C408.339 1196.59 506.826 1218 609 1218C711.174 1218 805.26 1193.62 891.614 1147.82C870.799 1056.71 816.084 984.986 744.479 952.989Z" fill="white"/>
<path d="M859.142 689.526C850.459 693.927 839.516 696.068 828.692 696.068H408.934C398.11 696.068 389.308 693.927 378.484 689.526C356.717 678.702 343.633 654.675 345.893 630.767V628.626C356.717 548.1 426.419 485.059 513.368 480.777C552.501 478.636 591.634 478.636 630.767 478.636C661.217 478.636 691.667 478.636 722.117 480.777C809.066 485.178 880.909 548.219 889.592 628.626V630.767C893.874 654.675 880.909 678.583 859.142 689.526Z" fill="#333333"/>
<path d="M793.841 598.176C793.841 635.168 765.532 663.477 728.54 663.477C691.548 663.477 663.239 635.168 663.239 598.176C663.239 561.184 691.548 532.875 728.54 532.875C765.651 532.875 793.841 561.184 793.841 598.176Z" fill="#333333"/>
<path d="M728.659 674.301C687.385 674.301 652.534 639.45 652.534 598.176C652.534 556.902 687.385 522.051 728.659 522.051C769.933 522.051 804.784 556.902 804.784 598.176C804.784 639.45 769.933 674.301 728.659 674.301ZM728.659 543.699C698.209 543.699 674.301 567.607 674.301 598.057C674.301 628.507 698.209 652.415 728.659 652.415C759.109 652.415 783.017 628.507 783.017 598.057C783.017 567.726 759.109 543.699 728.659 543.699Z" fill="white"/>
<path d="M765.651 591.634C765.651 602.458 756.968 613.401 743.884 613.401C730.8 613.401 722.117 604.718 722.117 591.634C722.117 580.81 730.8 569.867 743.884 569.867C754.708 569.867 765.651 578.55 765.651 591.634Z" fill="white"/>
<path d="M576.409 598.176C576.409 635.168 548.1 663.477 511.108 663.477C474.116 663.477 445.807 635.168 445.807 598.176C445.807 561.184 474.116 532.875 511.108 532.875C548.1 532.875 576.409 561.184 576.409 598.176Z" fill="#333333"/>
<path d="M511.108 674.301C469.834 674.301 434.983 639.45 434.983 598.176C434.983 556.902 469.834 522.051 511.108 522.051C552.382 522.051 587.233 556.902 587.233 598.176C587.233 639.45 552.501 674.301 511.108 674.301ZM511.108 543.699C480.658 543.699 456.75 567.607 456.75 598.057C456.75 628.507 480.658 652.415 511.108 652.415C541.558 652.415 565.466 628.507 565.466 598.057C565.466 567.726 541.558 543.699 511.108 543.699Z" fill="white"/>
<path d="M548.1 591.634C548.1 602.458 539.417 613.401 526.333 613.401C513.249 613.401 504.566 604.718 504.566 591.634C504.566 580.81 513.249 569.867 526.333 569.867C537.276 569.867 548.1 578.55 548.1 591.634Z" fill="white"/>
<path d="M550.241 828.692L698.09 817.868C708.914 815.727 717.716 807.044 717.716 798.242C717.716 798.242 717.716 796.101 715.575 796.101C713.434 796.101 713.434 796.101 711.174 796.101L526.333 804.784C524.192 804.784 524.192 804.784 524.192 804.784C522.051 804.784 522.051 806.925 522.051 806.925L524.192 811.326C528.474 820.009 541.558 828.692 550.241 828.692Z" fill="#333333"/>
<path d="M717.716 798.242C715.575 809.066 706.892 813.348 696.187 813.348L551.55 822.031C540.726 824.172 527.76 817.749 523.478 809.066C538.585 850.221 581.762 882.693 629.221 878.411C676.68 874.129 711.293 843.798 717.716 802.643C717.716 802.524 717.716 800.383 717.716 798.242Z" fill="#F95700"/>
</svg>
