<svg width="1218" height="1218" viewBox="0 0 1218 1218" fill="none" xmlns="http://www.w3.org/2000/svg">
<path d="M1218 609C1218 271.909 946.091 0 609 0C271.909 0 0 271.909 0 609C0 843.917 132.029 1047.19 326.148 1148.77C348.034 1053.02 407.507 977.968 484.583 948.589C365.4 896.729 282.733 778.259 282.733 639.45C282.733 487.2 382.766 358.858 521.932 317.584V278.451C521.932 267.627 530.615 258.825 541.558 258.825H609V147.849C595.916 143.448 587.233 132.624 587.233 117.399C587.233 100.033 602.458 84.808 619.824 84.808C637.19 84.808 652.415 100.033 652.415 117.399C652.415 130.483 643.732 143.448 630.648 147.849V258.825H698.209C709.033 258.825 717.835 267.508 717.835 278.451V317.584C857.001 358.858 957.034 487.2 957.034 639.45C957.034 782.422 869.371 903.746 744.479 952.99C816.084 984.986 870.799 1056.71 891.614 1147.82C930.39 1127.24 966.906 1102.62 1000.45 1074.43L1218 1162.57L1131.05 924.324C1187.55 832.974 1218 724.258 1218 609Z" fill="#F95700"/>
<path d="M744.479 952.99C869.371 903.746 957.034 782.422 957.034 639.45C957.034 487.2 857.001 358.858 717.835 317.584V278.451C717.835 267.627 709.152 258.825 698.209 258.825H630.767V147.849C643.851 143.448 652.534 130.483 652.534 117.399C652.534 100.033 637.309 84.8079 619.943 84.8079C602.577 84.8079 587.352 100.033 587.352 117.399C587.352 132.624 596.035 143.448 609.119 147.849V258.825H541.677C530.853 258.825 522.051 267.508 522.051 278.451V317.584C382.885 358.858 282.852 487.2 282.852 639.45C282.852 778.259 365.519 896.729 484.702 948.589C407.626 977.968 348.034 1053.02 326.148 1148.77C408.339 1196.59 506.826 1218 609 1218C711.174 1218 805.26 1193.62 891.614 1147.82C870.799 1056.71 816.084 984.986 744.479 952.99Z" fill="white"/>
<path d="M859.142 689.526C850.459 693.927 839.516 696.068 828.692 696.068H408.934C398.11 696.068 389.308 693.927 378.484 689.526C356.717 678.702 343.633 654.675 345.893 630.767V628.626C356.717 548.1 426.419 485.059 513.368 480.777C552.501 478.636 591.634 478.636 630.767 478.636C661.217 478.636 691.667 478.636 722.117 480.777C809.066 485.178 880.909 548.219 889.592 628.626V630.767C893.874 654.675 880.909 678.583 859.142 689.526Z" fill="#333333"/>
<path d="M793.841 598.176C793.841 635.168 765.532 663.477 728.54 663.477C691.548 663.477 663.239 635.168 663.239 598.176C663.239 561.184 691.548 532.875 728.54 532.875C765.651 532.875 793.841 561.184 793.841 598.176Z" fill="#333333"/>
<path d="M728.659 674.301C687.385 674.301 652.534 639.45 652.534 598.176C652.534 556.902 687.385 522.051 728.659 522.051C769.933 522.051 804.784 556.902 804.784 598.176C804.784 639.45 769.933 674.301 728.659 674.301ZM728.659 543.699C698.209 543.699 674.301 567.607 674.301 598.057C674.301 628.507 698.209 652.415 728.659 652.415C759.109 652.415 783.017 628.507 783.017 598.057C783.017 567.726 759.109 543.699 728.659 543.699Z" fill="white"/>
<path d="M765.651 591.634C765.651 602.458 756.968 613.401 743.884 613.401C730.8 613.401 722.117 604.718 722.117 591.634C722.117 580.81 730.8 569.867 743.884 569.867C754.708 569.867 765.651 578.55 765.651 591.634Z" fill="white"/>
<path d="M576.409 598.176C576.409 635.168 548.1 663.477 511.108 663.477C474.116 663.477 445.807 635.168 445.807 598.176C445.807 561.184 474.116 532.875 511.108 532.875C548.1 532.875 576.409 561.184 576.409 598.176Z" fill="#333333"/>
<path d="M511.108 674.301C469.834 674.301 434.983 639.45 434.983 598.176C434.983 556.902 469.834 522.051 511.108 522.051C552.382 522.051 587.233 556.902 587.233 598.176C587.233 639.45 552.501 674.301 511.108 674.301ZM511.108 543.699C480.658 543.699 456.75 567.607 456.75 598.057C456.75 628.507 480.658 652.415 511.108 652.415C541.558 652.415 565.466 628.507 565.466 598.057C565.466 567.726 541.558 543.699 511.108 543.699Z" fill="white"/>
<path d="M548.1 591.634C548.1 602.458 539.417 613.401 526.333 613.401C513.249 613.401 504.566 604.718 504.566 591.634C504.566 580.81 513.249 569.867 526.333 569.867C537.276 569.867 548.1 578.55 548.1 591.634Z" fill="white"/>
<path d="M550.241 828.692L698.09 817.868C708.914 815.727 717.716 807.044 717.716 798.242C717.716 798.242 717.716 796.101 715.575 796.101C713.434 796.101 713.434 796.101 711.174 796.101L526.333 804.784C524.192 804.784 524.192 804.784 524.192 804.784C522.051 804.784 522.051 806.925 522.051 806.925L524.192 811.326C528.474 820.009 541.558 828.692 550.241 828.692Z" fill="#333333"/>
<path d="M717.716 798.242C715.575 809.066 706.892 813.348 696.187 813.348L551.55 822.031C540.726 824.172 527.76 817.749 523.478 809.066C538.585 850.221 581.762 882.693 629.221 878.411C676.68 874.129 711.293 843.798 717.716 802.643C717.716 802.524 717.716 800.383 717.716 798.242Z" fill="#F95700"/>
</svg>
