<svg width="63" height="48" viewBox="0 0 63 48" fill="none" xmlns="http://www.w3.org/2000/svg">
<path d="M33.8219 33.1128H50.3793C51.0002 33.1128 51.4141 32.7334 51.4141 32.1642V23.627C51.4141 23.0579 51.0002 22.6785 50.3793 22.6785H33.8219C33.201 22.6785 32.7871 23.0579 32.7871 23.627V32.1642C32.787 32.7333 33.201 33.1128 33.8219 33.1128ZM34.8567 24.5756H49.3445V31.2156H34.8567V24.5756Z" fill="#32AEB1"/>
<path d="M5.88148 20.7812H14.1602C14.7811 20.7812 15.195 20.4018 15.195 19.8327C15.195 19.2635 14.7811 18.8842 14.1602 18.8842H5.88148C5.26057 18.8842 4.84668 19.2635 4.84668 19.8327C4.84668 20.4018 5.26057 20.7812 5.88148 20.7812Z" fill="#32AEB1"/>
<path d="M18.2994 20.7812H26.5782C27.1991 20.7812 27.613 20.4018 27.613 19.8327C27.613 19.2635 27.1991 18.8842 26.5782 18.8842H18.2994C17.6785 18.8842 17.2646 19.2635 17.2646 19.8327C17.2646 20.4018 17.6785 20.7812 18.2994 20.7812Z" fill="#32AEB1"/>
<path d="M5.88148 24.5756H19.3343C19.9552 24.5756 20.3691 24.1962 20.3691 23.627C20.3691 23.0579 19.9552 22.6785 19.3343 22.6785H5.88148C5.26057 22.6785 4.84668 23.0579 4.84668 23.627C4.84668 24.1962 5.26057 24.5756 5.88148 24.5756Z" fill="#32AEB1"/>
<path d="M26.5783 22.6784H23.4738C22.8529 22.6784 22.439 23.0578 22.439 23.627C22.439 24.1961 22.8529 24.5755 23.4738 24.5755H26.5783C27.1992 24.5755 27.6131 24.1961 27.6131 23.627C27.6131 23.0578 27.1992 22.6784 26.5783 22.6784Z" fill="#32AEB1"/>
<path d="M61.866 10.9161C61.1416 10.0624 60.2103 9.58808 59.0719 9.49326L56.5883 9.21736V6.5526V4.65553C56.5883 2.5687 54.7256 0.861267 52.449 0.861267H4.84634C2.56974 0.861156 0.707031 2.56859 0.707031 4.65553V6.55271V14.1413V35.0099C0.707031 36.7233 1.96303 38.18 3.67245 38.6469C3.6203 40.5658 5.20421 42.2316 7.33008 42.4088L55.1396 47.3414C55.243 47.3414 55.45 47.3414 55.5535 47.3414C57.6232 47.3414 59.4859 45.9185 59.6928 44.1163L62.7973 13.667C62.9008 12.7184 62.5903 11.6749 61.866 10.9161ZM2.77675 7.50125H54.5187V9.96758V13.1927H2.77675V7.50125ZM4.84634 2.75834H52.4489C53.5872 2.75834 54.5186 3.61206 54.5186 4.65553V5.60407H2.77675V4.65553C2.77675 3.61206 3.7081 2.75834 4.84634 2.75834ZM2.77675 35.0098V15.0898H54.5187V35.0098C54.5187 36.0533 53.5873 36.907 52.449 36.907H4.94991H4.84646C3.7081 36.907 2.77675 36.0533 2.77675 35.0098ZM60.7276 13.2875L57.6231 43.7368C57.5196 44.7802 56.4847 45.539 55.3465 45.4442L7.64041 40.5116C6.60561 40.4168 5.88114 39.6579 5.7777 38.8042H52.4489C54.7255 38.8042 56.5882 37.0968 56.5882 35.0099V14.1412V11.0109L58.9683 11.2007C59.4858 11.2007 60.0031 11.4853 60.3136 11.8647C60.6242 12.2441 60.8312 12.8132 60.7276 13.2875Z" fill="#32AEB1"/>
</svg>
