<svg width="50" height="60" viewBox="0 0 50 60" fill="none" xmlns="http://www.w3.org/2000/svg">
<path d="M35.1802 35.1677C35.629 35.1677 36.0262 34.8762 36.1628 34.4507L37.816 29.277L42.1463 26.0841C42.5023 25.8185 42.6518 25.362 42.5177 24.939L40.862 19.7653L42.5152 14.5943C42.6493 14.1713 42.5023 13.7122 42.1463 13.4491L37.816 10.2536L36.1628 5.08256C36.0262 4.65701 35.629 4.36557 35.1802 4.36557H29.8338L25.5086 1.17523C25.145 0.907004 24.6498 0.907004 24.2835 1.17523L19.9533 4.36557H14.6145C14.1658 4.36557 13.7686 4.65701 13.6319 5.08256L11.9813 10.2511L7.6484 13.4466C7.29248 13.7122 7.1429 14.1739 7.27959 14.5943L8.93795 19.7653L7.27959 24.9364C7.14548 25.3568 7.29248 25.8185 7.65098 26.0815L11.9839 29.2744L13.6371 34.4481C13.7737 34.8737 14.1709 35.1651 14.6197 35.1651H19.9584L24.2887 38.3529C24.4718 38.487 24.6859 38.554 24.9 38.554C25.114 38.554 25.3307 38.487 25.5112 38.3529L29.8363 35.1651H35.1802V35.1677ZM28.8846 33.3056L24.8974 36.2457L20.9049 33.3056C20.727 33.174 20.5129 33.1044 20.2937 33.1044H15.3676L13.8434 28.3305C13.7789 28.1242 13.6474 27.9436 13.472 27.8147L9.46924 24.8616L11.0012 20.08C11.0657 19.8762 11.0657 19.6544 11.0012 19.4507L9.46924 14.669L13.4746 11.7134C13.6499 11.5819 13.7789 11.4039 13.846 11.1976L15.3702 6.42626H20.2937C20.5129 6.42626 20.727 6.35663 20.9049 6.22509L24.8974 3.28235L28.8846 6.22509C29.0626 6.35663 29.2767 6.42626 29.4959 6.42626H34.4271L35.9514 11.1976C36.0158 11.4039 36.1474 11.5819 36.3202 11.7134L40.3255 14.669L38.7987 19.4507C38.7342 19.6544 38.7342 19.8762 38.7987 20.08L40.3255 24.8616L36.3228 27.8147C36.1474 27.9462 36.0184 28.1242 35.9514 28.3305L34.4271 33.1044H29.4959C29.2767 33.1018 29.0626 33.174 28.8846 33.3056Z" fill="#32AEB1"/>
<path d="M19.5122 39.6322C18.9834 39.4362 18.3825 39.6967 18.1814 40.228L12.2881 55.6638L10.2893 49.7474C10.1887 49.4508 9.9592 49.2135 9.66261 49.1078C9.36859 48.9969 9.04105 49.0356 8.77282 49.1981L3.46505 52.4606L8.65418 37.8707C8.84503 37.3342 8.56391 36.7436 8.02746 36.5528C7.49101 36.3619 6.9004 36.643 6.70955 37.1795L0.540356 54.529C0.395926 54.9391 0.524881 55.4008 0.865321 55.6742C1.20576 55.9501 1.68031 55.9811 2.05428 55.7515L8.74961 51.6327L11.2513 59.0399C11.3906 59.4525 11.7749 59.7336 12.2082 59.7414C12.2133 59.7414 12.2211 59.7414 12.2288 59.7414C12.6569 59.7414 13.0386 59.4757 13.1934 59.076L20.1105 40.9604C20.3117 40.4317 20.0435 39.8359 19.5122 39.6322Z" fill="#32AEB1"/>
<path d="M49.2029 54.529L43.0337 37.1795C42.8429 36.643 42.2471 36.3619 41.7158 36.5528C41.1794 36.7436 40.8982 37.3342 41.0891 37.8707L46.2782 52.4632L40.9705 49.1981C40.7022 49.0356 40.3773 48.9995 40.0781 49.1078C39.7841 49.2135 39.5519 49.4508 39.4514 49.7474L37.4526 55.6638L31.4175 39.854C31.2137 39.3227 30.6206 39.0545 30.0867 39.2582C29.5528 39.462 29.2872 40.0603 29.4909 40.5916L36.5473 59.0811C36.6995 59.4809 37.0838 59.7465 37.5119 59.7465C37.517 59.7465 37.5248 59.7465 37.5325 59.7465C37.9658 59.7362 38.3501 59.4577 38.4894 59.045L40.9911 51.6379L47.689 55.7567C48.063 55.9862 48.5375 55.9553 48.878 55.6793C49.2184 55.4008 49.3473 54.9391 49.2029 54.529Z" fill="#32AEB1"/>
</svg>
