<svg width="80" height="51" viewBox="0 0 80 51" fill="none" xmlns="http://www.w3.org/2000/svg">
<rect width="79.0874" height="50.028" transform="translate(0.697754 0.0158691)" fill="white"/>
<path d="M74.2489 21.2245L72.2008 13.0323C72.7607 12.9133 73.1809 12.4166 73.1809 11.8214V10.5005C73.1809 7.63268 70.8476 5.2996 67.9799 5.2996H58.6513V2.57509C58.6513 1.16387 57.5033 0.0158691 56.0921 0.0158691H8.5404C7.12918 0.0158691 5.98117 1.16387 5.98117 2.57509V25.0301C5.98117 25.7139 6.53556 26.2685 7.21954 26.2685C7.90337 26.2685 8.45791 25.7141 8.45791 25.0301V2.57509C8.45791 2.52953 8.49483 2.49261 8.5404 2.49261H56.0919C56.1375 2.49261 56.1744 2.52953 56.1744 2.57509V25.0304C56.1744 25.7142 56.7288 26.2688 57.4128 26.2688C58.0966 26.2688 58.6512 25.7144 58.6512 25.0304V23.6266H73.259C73.2603 23.6266 73.2612 23.6269 73.2623 23.6269C73.2635 23.6269 73.2646 23.6267 73.2657 23.6267C75.0632 23.628 76.5895 24.8078 77.1138 26.4336H73.2632C72.5794 26.4336 72.0248 26.988 72.0248 27.672V30.3137C72.0248 32.4532 73.7654 34.1937 75.9049 34.1937H77.3084V39.6423H74.0705C73.0068 36.571 70.0872 34.3587 66.6588 34.3587C63.2304 34.3587 60.3106 36.571 59.2471 39.6423H58.6509V30.3135C58.6509 29.6297 58.0965 29.0751 57.4125 29.0751C56.7287 29.0751 56.1741 29.6295 56.1741 30.3135V39.642H30.4818C29.4181 36.5707 26.4985 34.3584 23.0701 34.3584C19.6417 34.3584 16.7219 36.5707 15.6584 39.642H8.5404C8.49483 39.642 8.45791 39.6051 8.45791 39.5595V36.8351H13.824C14.5078 36.8351 15.0623 36.2808 15.0623 35.5968C15.0623 34.9128 14.508 34.3584 13.824 34.3584H1.93612C1.25229 34.3584 0.697754 34.9128 0.697754 35.5968C0.697754 36.2808 1.25214 36.8351 1.93612 36.8351H5.98133V39.5595C5.98133 40.9707 7.12933 42.1187 8.54055 42.1187H15.2296C15.2293 42.1462 15.2275 42.1736 15.2275 42.2012C15.2275 46.5257 18.7458 50.0438 23.0701 50.0438C27.3944 50.0438 30.9128 46.5257 30.9128 42.2012C30.9128 42.1734 30.9109 42.1462 30.9106 42.1187H58.8183C58.818 42.1462 58.8161 42.1736 58.8161 42.2012C58.8161 46.5257 62.3345 50.0438 66.6588 50.0438C70.9831 50.0438 74.5014 46.5257 74.5014 42.2012C74.5014 42.1734 74.4996 42.1462 74.4993 42.1187H78.5468C79.2306 42.1187 79.7852 41.5643 79.7852 40.8803V27.6716C79.7853 24.4105 77.3792 21.701 74.2489 21.2245ZM58.6513 7.77618H67.9799C69.4821 7.77618 70.7043 8.99833 70.7043 10.5005V10.583H58.6513V7.77618ZM58.6513 21.15V13.0596H69.6548L71.6774 21.15H58.6513ZM23.0701 47.5676C20.1113 47.5676 17.7041 45.1605 17.7041 42.2015C17.7041 39.2425 20.1113 36.8355 23.0701 36.8355C26.0289 36.8355 28.4362 39.2425 28.4362 42.2015C28.4362 45.1605 26.0289 47.5676 23.0701 47.5676ZM66.6591 47.5676C63.7003 47.5676 61.293 45.1605 61.293 42.2015C61.293 39.2425 63.7003 36.8355 66.6591 36.8355C69.6179 36.8355 72.0252 39.2425 72.0252 42.2015C72.0252 45.1605 69.6179 47.5676 66.6591 47.5676ZM77.3087 31.717H75.9052C75.1313 31.717 74.5017 31.0874 74.5017 30.3135V28.91H77.3086V31.717H77.3087Z" fill="#32AEB1"/>
<path d="M23.07 39.6423C21.6587 39.6423 20.5107 40.7903 20.5107 42.2015C20.5107 43.6127 21.6587 44.7607 23.07 44.7607C24.4812 44.7607 25.6292 43.6127 25.6292 42.2015C25.6292 40.7903 24.4812 39.6423 23.07 39.6423Z" fill="#32AEB1"/>
<path d="M66.6593 39.6423C65.2481 39.6423 64.1001 40.7903 64.1001 42.2015C64.1001 43.6127 65.2481 44.7607 66.6593 44.7607C68.0705 44.7607 69.2185 43.6127 69.2185 42.2015C69.2185 40.7903 68.0705 39.6423 66.6593 39.6423Z" fill="#32AEB1"/>
<path d="M52.1296 34.3589H33.6373C32.9535 34.3589 32.3989 34.9132 32.3989 35.5972C32.3989 36.2812 32.9533 36.8356 33.6373 36.8356H52.1296C52.8134 36.8356 53.3679 36.2812 53.3679 35.5972C53.3679 34.9132 52.8136 34.3589 52.1296 34.3589Z" fill="#32AEB1"/>
<path d="M20.4293 29.0753H4.5787C3.89487 29.0753 3.34033 29.6296 3.34033 30.3136C3.34033 30.9976 3.89472 31.552 4.5787 31.552H20.4293C21.1131 31.552 21.6676 30.9976 21.6676 30.3136C21.6676 29.6296 21.1131 29.0753 20.4293 29.0753Z" fill="#32AEB1"/>
<path d="M43.7595 12.2664C43.276 11.7829 42.4918 11.7829 42.0083 12.2666L30.996 23.2787L25.2673 17.55C24.7836 17.0663 23.9995 17.0663 23.516 17.55C23.0324 18.0336 23.0324 18.8175 23.516 19.3012L30.1205 25.9056C30.3622 26.1475 30.6792 26.2683 30.996 26.2683C31.3128 26.2683 31.6299 26.1475 31.8715 25.9056L43.7594 14.0178C44.243 13.534 44.243 12.75 43.7595 12.2664Z" fill="#32AEB1"/>
</svg>
