<svg width="79" height="77" viewBox="0 0 79 77" fill="none" xmlns="http://www.w3.org/2000/svg">
<path d="M78.375 72.875L71.5 58.4375C75.075 52.6625 77 45.7875 77 38.5C77 17.1875 59.8125 0 38.5 0C17.1875 0 0 17.1875 0 38.5C0 59.8125 17.1875 77 38.5 77C47.9875 77 56.5125 73.5625 63.25 67.925L78.375 72.875Z" fill="#F95700"/>
<path d="M45.375 20.075V17.6C45.375 16.9125 44.825 16.3625 44.1375 16.3625H39.875V9.35005C40.7 9.07505 41.25 8.25005 41.25 7.42505C41.25 6.32505 40.2875 5.36255 39.1875 5.36255C38.0875 5.36255 37.125 6.32505 37.125 7.42505C37.125 8.38755 37.675 9.07505 38.5 9.35005V16.3625H34.2375C33.55 16.3625 33 16.9125 33 17.6V20.075C24.2 22.6875 17.875 30.8 17.875 40.425C17.875 52.25 27.3625 61.7375 39.1875 61.7375C51.0125 61.7375 60.5 52.25 60.5 40.425C60.5 30.8 54.175 22.6875 45.375 20.075Z" fill="white"/>
<path d="M56.375 72.6C50.875 75.4875 44.9625 77 38.5 77C32.0375 77 25.85 75.4875 20.625 72.6C22.4125 64.7625 28.1875 59.125 35.2 59.125H41.8C48.8125 59.125 54.5875 64.7625 56.375 72.6Z" fill="white"/>
<path d="M54.3125 43.5875C53.7625 43.8625 53.075 44 52.3875 44H25.85C25.1625 44 24.6125 43.8625 23.925 43.5875C22.55 42.9 21.725 41.3875 21.8625 39.875V39.7375C22.55 34.65 26.95 30.6625 32.45 30.3875C34.925 30.25 37.4 30.25 39.875 30.25C41.8 30.25 43.725 30.25 45.65 30.3875C51.15 30.6625 55.6875 34.65 56.2375 39.7375V39.875C56.5125 41.3875 55.6875 42.9 54.3125 43.5875Z" fill="#333333"/>
<path d="M50.1874 37.8125C50.1874 40.15 48.3999 41.9375 46.0624 41.9375C43.7249 41.9375 41.9374 40.15 41.9374 37.8125C41.9374 35.475 43.7249 33.6875 46.0624 33.6875C48.3999 33.6875 50.1874 35.475 50.1874 37.8125Z" fill="#333333"/>
<path d="M46.0624 42.625C43.4499 42.625 41.2499 40.425 41.2499 37.8125C41.2499 35.2 43.4499 33 46.0624 33C48.6749 33 50.8749 35.2 50.8749 37.8125C50.8749 40.425 48.6749 42.625 46.0624 42.625ZM46.0624 34.375C44.1374 34.375 42.6249 35.8875 42.6249 37.8125C42.6249 39.7375 44.1374 41.25 46.0624 41.25C47.9874 41.25 49.4999 39.7375 49.4999 37.8125C49.4999 35.8875 47.9874 34.375 46.0624 34.375Z" fill="white"/>
<path d="M48.3999 37.3999C48.3999 38.0874 47.8499 38.7749 47.0249 38.7749C46.1999 38.7749 45.6499 38.2249 45.6499 37.3999C45.6499 36.7124 46.1999 36.0249 47.0249 36.0249C47.7124 36.0249 48.3999 36.5749 48.3999 37.3999Z" fill="white"/>
<path d="M36.4376 37.8125C36.4376 40.15 34.6501 41.9375 32.3126 41.9375C29.9751 41.9375 28.1876 40.15 28.1876 37.8125C28.1876 35.475 29.9751 33.6875 32.3126 33.6875C34.6501 33.6875 36.4376 35.475 36.4376 37.8125Z" fill="#333333"/>
<path d="M32.3124 42.625C29.6999 42.625 27.4999 40.425 27.4999 37.8125C27.4999 35.2 29.6999 33 32.3124 33C34.9249 33 37.1249 35.2 37.1249 37.8125C37.1249 40.425 34.9249 42.625 32.3124 42.625ZM32.3124 34.375C30.3874 34.375 28.8749 35.8875 28.8749 37.8125C28.8749 39.7375 30.3874 41.25 32.3124 41.25C34.2374 41.25 35.7499 39.7375 35.7499 37.8125C35.7499 35.8875 34.2374 34.375 32.3124 34.375Z" fill="white"/>
<path d="M34.6498 37.3999C34.6498 38.0874 34.0998 38.7749 33.2748 38.7749C32.4498 38.7749 31.8998 38.2249 31.8998 37.3999C31.8998 36.7124 32.4498 36.0249 33.2748 36.0249C33.9623 36.0249 34.6498 36.5749 34.6498 37.3999Z" fill="white"/>
<path d="M34.7874 52.3875L44.1374 51.7C44.8249 51.5625 45.3749 51.0125 45.3749 50.4625C45.3749 50.4625 45.3749 50.325 45.2374 50.325C45.0999 50.325 45.0999 50.325 44.9624 50.325L33.2749 50.875C33.1374 50.875 33.1374 50.875 33.1374 50.875C32.9999 50.875 32.9999 51.0125 32.9999 51.0125L33.1374 51.2875C33.4124 51.8375 34.2374 52.3875 34.7874 52.3875Z" fill="#333333"/>
<path d="M45.3727 50.4636C45.2362 51.1483 44.6904 51.4221 44.0081 51.4221L34.8649 51.9698C34.1826 52.1068 33.3638 51.696 33.0909 51.1483C34.0461 53.7499 36.7754 55.8038 39.7776 55.53C42.7799 55.2561 44.9633 53.3391 45.3727 50.7375C45.3727 50.7375 45.3727 50.6006 45.3727 50.4636Z" fill="#F95700"/>
</svg>
